<?xml version="1.0" standalone="no"?>
<!DOCTYPE svg PUBLIC "-//W3C//DTD SVG 20010904//EN"
 "http://www.w3.org/TR/2001/REC-SVG-20010904/DTD/svg10.dtd">
<svg version="1.0" xmlns="http://www.w3.org/2000/svg"
 width="260.000000pt" height="260.000000pt" viewBox="0 0 260.000000 260.000000"
 preserveAspectRatio="xMidYMid meet">
<metadata>
Created by potrace 1.11, written by Peter Selinger 2001-2013
</metadata>
<g transform="translate(0.000000,260.000000) scale(0.100000,-0.100000)"
fill="#000000" stroke="none">
<path d="M310 1880 l0 -70 276 0 275 0 -3 -427 c-3 -424 -3 -429 -26 -480 -29
-63 -65 -97 -129 -118 -129 -44 -261 -5 -357 106 l-35 41 -38 -30 c-78 -61
-78 -62 -32 -117 80 -97 184 -151 313 -162 191 -16 351 58 419 193 49 98 50
117 52 642 l2 492 -359 0 -358 0 0 -70z"/>
<path d="M1435 1298 l0 -653 83 -3 c45 -2 83 1 83 5 1 4 2 99 3 209 1 216 -2
200 51 260 6 6 33 37 60 69 28 32 66 76 85 97 l35 39 25 -48 c14 -26 71 -131
128 -233 57 -102 116 -207 131 -235 15 -27 42 -76 60 -107 l33 -58 89 0 c52 0
89 4 89 10 0 5 -18 39 -40 75 -22 36 -40 67 -40 68 0 2 -56 101 -125 221 -69
120 -125 221 -125 224 0 3 -6 13 -14 21 -7 9 -29 45 -48 81 -19 36 -41 75 -48
87 -14 22 5 49 171 248 10 11 57 67 105 125 48 58 96 115 107 128 l20 22 -96
0 -96 0 -173 -207 c-95 -113 -177 -211 -183 -217 -5 -6 -32 -38 -60 -71 -27
-33 -52 -62 -55 -65 -3 -3 -20 -24 -39 -47 -18 -24 -36 -43 -40 -43 -3 0 -6
145 -6 323 l0 322 -85 3 -85 3 0 -653z"/>
</g>
</svg>
